<mxfile host="app.diagrams.net" agent="Mozilla/5.0 (Windows NT 10.0; Win64; x64; rv:131.0) Gecko/20100101 Firefox/131.0" version="24.8.3">
  <diagram name="Page-1" id="u74PuvL5i9XdKXtWHOdk">
    <mxGraphModel dx="697" dy="634" grid="1" gridSize="10" guides="1" tooltips="1" connect="1" arrows="1" fold="1" page="1" pageScale="1" pageWidth="850" pageHeight="1100" math="0" shadow="0">
      <root>
        <mxCell id="0" />
        <mxCell id="1" parent="0" />
        <mxCell id="oTseqAAYHnmtsjDJyoBC-13" value="" style="edgeStyle=orthogonalEdgeStyle;rounded=0;orthogonalLoop=1;jettySize=auto;html=1;" edge="1" parent="1" source="oTseqAAYHnmtsjDJyoBC-2" target="oTseqAAYHnmtsjDJyoBC-10">
          <mxGeometry relative="1" as="geometry" />
        </mxCell>
        <mxCell id="oTseqAAYHnmtsjDJyoBC-2" value="&lt;div&gt;60 .tif images&lt;/div&gt;(one image/well)" style="rounded=1;whiteSpace=wrap;html=1;arcSize=50;" vertex="1" parent="1">
          <mxGeometry x="210" y="55" width="120" height="60" as="geometry" />
        </mxCell>
        <mxCell id="oTseqAAYHnmtsjDJyoBC-8" value="" style="edgeStyle=orthogonalEdgeStyle;rounded=0;orthogonalLoop=1;jettySize=auto;html=1;" edge="1" parent="1" source="oTseqAAYHnmtsjDJyoBC-4" target="oTseqAAYHnmtsjDJyoBC-7">
          <mxGeometry relative="1" as="geometry" />
        </mxCell>
        <mxCell id="oTseqAAYHnmtsjDJyoBC-12" value="" style="edgeStyle=orthogonalEdgeStyle;rounded=0;orthogonalLoop=1;jettySize=auto;html=1;" edge="1" parent="1" source="oTseqAAYHnmtsjDJyoBC-4" target="oTseqAAYHnmtsjDJyoBC-2">
          <mxGeometry relative="1" as="geometry" />
        </mxCell>
        <mxCell id="oTseqAAYHnmtsjDJyoBC-4" value="&lt;div&gt;Prompt GUI&lt;/div&gt;&lt;div&gt;(cell lines, doses, title, image folder)&lt;br&gt;&lt;/div&gt;" style="rounded=1;whiteSpace=wrap;html=1;" vertex="1" parent="1">
          <mxGeometry x="10" y="55" width="120" height="60" as="geometry" />
        </mxCell>
        <mxCell id="oTseqAAYHnmtsjDJyoBC-11" value="" style="edgeStyle=orthogonalEdgeStyle;rounded=0;orthogonalLoop=1;jettySize=auto;html=1;" edge="1" parent="1" source="oTseqAAYHnmtsjDJyoBC-7" target="oTseqAAYHnmtsjDJyoBC-10">
          <mxGeometry relative="1" as="geometry" />
        </mxCell>
        <mxCell id="oTseqAAYHnmtsjDJyoBC-7" value="Define file paths for CellProfiler, its inputs and output" style="whiteSpace=wrap;html=1;rounded=1;" vertex="1" parent="1">
          <mxGeometry x="10" y="195" width="120" height="60" as="geometry" />
        </mxCell>
        <mxCell id="oTseqAAYHnmtsjDJyoBC-9" value="20241107 nuclei_count_to_xyplot_local_v1.2.1.py workflow" style="text;html=1;align=center;verticalAlign=middle;whiteSpace=wrap;rounded=0;" vertex="1" parent="1">
          <mxGeometry x="20" width="1020" height="30" as="geometry" />
        </mxCell>
        <mxCell id="oTseqAAYHnmtsjDJyoBC-15" value="" style="edgeStyle=orthogonalEdgeStyle;rounded=0;orthogonalLoop=1;jettySize=auto;html=1;" edge="1" parent="1" source="oTseqAAYHnmtsjDJyoBC-10" target="oTseqAAYHnmtsjDJyoBC-14">
          <mxGeometry relative="1" as="geometry" />
        </mxCell>
        <mxCell id="oTseqAAYHnmtsjDJyoBC-10" value="subprocess.run CellProfiler" style="whiteSpace=wrap;html=1;rounded=1;" vertex="1" parent="1">
          <mxGeometry x="210" y="195" width="120" height="60" as="geometry" />
        </mxCell>
        <mxCell id="oTseqAAYHnmtsjDJyoBC-17" value="" style="edgeStyle=orthogonalEdgeStyle;rounded=0;orthogonalLoop=1;jettySize=auto;html=1;" edge="1" parent="1" source="oTseqAAYHnmtsjDJyoBC-14" target="oTseqAAYHnmtsjDJyoBC-16">
          <mxGeometry relative="1" as="geometry" />
        </mxCell>
        <mxCell id="oTseqAAYHnmtsjDJyoBC-14" value="load output into DataFrame (cp_csv)" style="rounded=1;whiteSpace=wrap;html=1;" vertex="1" parent="1">
          <mxGeometry x="410" y="195" width="120" height="60" as="geometry" />
        </mxCell>
        <mxCell id="oTseqAAYHnmtsjDJyoBC-19" value="" style="edgeStyle=orthogonalEdgeStyle;rounded=0;orthogonalLoop=1;jettySize=auto;html=1;" edge="1" parent="1" source="oTseqAAYHnmtsjDJyoBC-16" target="oTseqAAYHnmtsjDJyoBC-18">
          <mxGeometry relative="1" as="geometry">
            <Array as="points">
              <mxPoint x="670" y="280" />
              <mxPoint x="70" y="280" />
            </Array>
          </mxGeometry>
        </mxCell>
        <mxCell id="oTseqAAYHnmtsjDJyoBC-16" value="&lt;div&gt;define triplicates and find their means&lt;br&gt;&lt;/div&gt;&lt;div&gt;(10 doses) * (2 cond.)&lt;br&gt;&lt;/div&gt;" style="whiteSpace=wrap;html=1;rounded=1;" vertex="1" parent="1">
          <mxGeometry x="610" y="195" width="120" height="60" as="geometry" />
        </mxCell>
        <mxCell id="oTseqAAYHnmtsjDJyoBC-22" value="" style="edgeStyle=orthogonalEdgeStyle;rounded=0;orthogonalLoop=1;jettySize=auto;html=1;" edge="1" parent="1" source="oTseqAAYHnmtsjDJyoBC-18" target="oTseqAAYHnmtsjDJyoBC-21">
          <mxGeometry relative="1" as="geometry" />
        </mxCell>
        <mxCell id="oTseqAAYHnmtsjDJyoBC-18" value="&lt;div&gt;group upper wells and lower well&lt;/div&gt;&lt;div&gt;find st. dev. for each triplicate&lt;br&gt; &lt;/div&gt;" style="whiteSpace=wrap;html=1;rounded=1;" vertex="1" parent="1">
          <mxGeometry x="10" y="310" width="120" height="60" as="geometry" />
        </mxCell>
        <mxCell id="oTseqAAYHnmtsjDJyoBC-20" value="&lt;div&gt;Plates are split into an &#39;upper&#39; and &#39;lower&#39; designation which may be two different cell lines, different media conditions, etc.&lt;/div&gt;&lt;div&gt;&lt;br&gt;&lt;/div&gt;&lt;div&gt;This means wells sum to: a vehicle and nine conc. of drug in&lt;br&gt;&lt;/div&gt;&amp;nbsp;technical triplicate (30 wells x 2 (upper + lower))" style="text;html=1;align=center;verticalAlign=middle;whiteSpace=wrap;rounded=0;" vertex="1" parent="1">
          <mxGeometry x="460" y="50" width="345" height="125" as="geometry" />
        </mxCell>
        <mxCell id="oTseqAAYHnmtsjDJyoBC-24" value="" style="edgeStyle=orthogonalEdgeStyle;rounded=0;orthogonalLoop=1;jettySize=auto;html=1;" edge="1" parent="1" source="oTseqAAYHnmtsjDJyoBC-21" target="oTseqAAYHnmtsjDJyoBC-23">
          <mxGeometry relative="1" as="geometry" />
        </mxCell>
        <mxCell id="oTseqAAYHnmtsjDJyoBC-21" value="normalize means to their condition&#39;s vehicle mean" style="whiteSpace=wrap;html=1;rounded=1;" vertex="1" parent="1">
          <mxGeometry x="210" y="310" width="120" height="60" as="geometry" />
        </mxCell>
        <mxCell id="oTseqAAYHnmtsjDJyoBC-26" value="" style="edgeStyle=orthogonalEdgeStyle;rounded=0;orthogonalLoop=1;jettySize=auto;html=1;" edge="1" parent="1" source="oTseqAAYHnmtsjDJyoBC-23" target="oTseqAAYHnmtsjDJyoBC-25">
          <mxGeometry relative="1" as="geometry" />
        </mxCell>
        <mxCell id="oTseqAAYHnmtsjDJyoBC-23" value="put doses input from GUI into a np.array" style="whiteSpace=wrap;html=1;rounded=1;" vertex="1" parent="1">
          <mxGeometry x="410" y="310" width="120" height="60" as="geometry" />
        </mxCell>
        <mxCell id="oTseqAAYHnmtsjDJyoBC-28" value="" style="edgeStyle=orthogonalEdgeStyle;rounded=0;orthogonalLoop=1;jettySize=auto;html=1;" edge="1" parent="1" source="oTseqAAYHnmtsjDJyoBC-25" target="oTseqAAYHnmtsjDJyoBC-27">
          <mxGeometry relative="1" as="geometry">
            <Array as="points">
              <mxPoint x="670" y="390" />
              <mxPoint x="70" y="390" />
            </Array>
          </mxGeometry>
        </mxCell>
        <mxCell id="oTseqAAYHnmtsjDJyoBC-25" value="put normalized means into np.array" style="whiteSpace=wrap;html=1;rounded=1;" vertex="1" parent="1">
          <mxGeometry x="610" y="310" width="120" height="60" as="geometry" />
        </mxCell>
        <mxCell id="oTseqAAYHnmtsjDJyoBC-30" value="" style="edgeStyle=orthogonalEdgeStyle;rounded=0;orthogonalLoop=1;jettySize=auto;html=1;" edge="1" parent="1" source="oTseqAAYHnmtsjDJyoBC-27" target="oTseqAAYHnmtsjDJyoBC-29">
          <mxGeometry relative="1" as="geometry" />
        </mxCell>
        <mxCell id="oTseqAAYHnmtsjDJyoBC-27" value="create 5-parameter logistic (5PL) function" style="whiteSpace=wrap;html=1;rounded=1;" vertex="1" parent="1">
          <mxGeometry x="10" y="420" width="120" height="60" as="geometry" />
        </mxCell>
        <mxCell id="oTseqAAYHnmtsjDJyoBC-32" value="" style="edgeStyle=orthogonalEdgeStyle;rounded=0;orthogonalLoop=1;jettySize=auto;html=1;" edge="1" parent="1" source="oTseqAAYHnmtsjDJyoBC-29" target="oTseqAAYHnmtsjDJyoBC-31">
          <mxGeometry relative="1" as="geometry" />
        </mxCell>
        <mxCell id="oTseqAAYHnmtsjDJyoBC-29" value="&lt;div&gt;define initial parameters for 5PL&lt;/div&gt;&lt;div&gt;(some relative, some constant)&lt;br&gt;&lt;/div&gt;" style="whiteSpace=wrap;html=1;rounded=1;" vertex="1" parent="1">
          <mxGeometry x="210" y="420" width="120" height="60" as="geometry" />
        </mxCell>
        <mxCell id="oTseqAAYHnmtsjDJyoBC-34" value="" style="edgeStyle=orthogonalEdgeStyle;rounded=0;orthogonalLoop=1;jettySize=auto;html=1;" edge="1" parent="1" source="oTseqAAYHnmtsjDJyoBC-31" target="oTseqAAYHnmtsjDJyoBC-33">
          <mxGeometry relative="1" as="geometry" />
        </mxCell>
        <mxCell id="oTseqAAYHnmtsjDJyoBC-31" value="use np.linspace with x values (doses)" style="whiteSpace=wrap;html=1;rounded=1;" vertex="1" parent="1">
          <mxGeometry x="410" y="420" width="120" height="60" as="geometry" />
        </mxCell>
        <mxCell id="oTseqAAYHnmtsjDJyoBC-36" value="" style="edgeStyle=orthogonalEdgeStyle;rounded=0;orthogonalLoop=1;jettySize=auto;html=1;" edge="1" parent="1" source="oTseqAAYHnmtsjDJyoBC-48" target="oTseqAAYHnmtsjDJyoBC-35">
          <mxGeometry relative="1" as="geometry">
            <Array as="points">
              <mxPoint x="70" y="500" />
            </Array>
          </mxGeometry>
        </mxCell>
        <mxCell id="oTseqAAYHnmtsjDJyoBC-33" value="use curve_fit to create lines of best fit for y values (relative means) in linspace" style="whiteSpace=wrap;html=1;rounded=1;" vertex="1" parent="1">
          <mxGeometry x="610" y="420" width="130" height="60" as="geometry" />
        </mxCell>
        <mxCell id="oTseqAAYHnmtsjDJyoBC-43" value="" style="edgeStyle=orthogonalEdgeStyle;rounded=0;orthogonalLoop=1;jettySize=auto;html=1;" edge="1" parent="1" source="oTseqAAYHnmtsjDJyoBC-35" target="oTseqAAYHnmtsjDJyoBC-42">
          <mxGeometry relative="1" as="geometry" />
        </mxCell>
        <mxCell id="oTseqAAYHnmtsjDJyoBC-35" value="plt.plot curves of best fit for y1 (top means) and y2 (bottom means)" style="whiteSpace=wrap;html=1;rounded=1;" vertex="1" parent="1">
          <mxGeometry x="10" y="530" width="130" height="60" as="geometry" />
        </mxCell>
        <mxCell id="oTseqAAYHnmtsjDJyoBC-45" value="" style="edgeStyle=orthogonalEdgeStyle;rounded=0;orthogonalLoop=1;jettySize=auto;html=1;" edge="1" parent="1" source="oTseqAAYHnmtsjDJyoBC-42" target="oTseqAAYHnmtsjDJyoBC-44">
          <mxGeometry relative="1" as="geometry" />
        </mxCell>
        <mxCell id="oTseqAAYHnmtsjDJyoBC-42" value="&lt;div&gt;scipy_root to find&amp;nbsp;&lt;/div&gt;&lt;div&gt;y = 0.5 for top (IC50y1) and bottom (IC50y2) conditions&lt;/div&gt;" style="whiteSpace=wrap;html=1;rounded=1;" vertex="1" parent="1">
          <mxGeometry x="210" y="530" width="120" height="60" as="geometry" />
        </mxCell>
        <mxCell id="oTseqAAYHnmtsjDJyoBC-47" value="" style="edgeStyle=orthogonalEdgeStyle;rounded=0;orthogonalLoop=1;jettySize=auto;html=1;" edge="1" parent="1" source="oTseqAAYHnmtsjDJyoBC-44" target="oTseqAAYHnmtsjDJyoBC-46">
          <mxGeometry relative="1" as="geometry" />
        </mxCell>
        <mxCell id="oTseqAAYHnmtsjDJyoBC-44" value="calculate IC50 ratio (IC50y1 / IC50y2)" style="whiteSpace=wrap;html=1;rounded=1;" vertex="1" parent="1">
          <mxGeometry x="410" y="530" width="120" height="60" as="geometry" />
        </mxCell>
        <mxCell id="oTseqAAYHnmtsjDJyoBC-46" value="scatter plot for x (doses), y1 (top rel. means) and y2 (bottom rel. means), cell line names and title from GUI, IC50s and IC50 ratio" style="whiteSpace=wrap;html=1;rounded=1;" vertex="1" parent="1">
          <mxGeometry x="610" y="530" width="200" height="60" as="geometry" />
        </mxCell>
        <mxCell id="oTseqAAYHnmtsjDJyoBC-49" value="" style="edgeStyle=orthogonalEdgeStyle;rounded=0;orthogonalLoop=1;jettySize=auto;html=1;" edge="1" parent="1" source="oTseqAAYHnmtsjDJyoBC-33" target="oTseqAAYHnmtsjDJyoBC-48">
          <mxGeometry relative="1" as="geometry">
            <mxPoint x="675" y="480" as="sourcePoint" />
            <mxPoint x="70" y="530" as="targetPoint" />
            <Array as="points">
              <mxPoint x="675" y="500" />
            </Array>
          </mxGeometry>
        </mxCell>
        <mxCell id="oTseqAAYHnmtsjDJyoBC-48" value="There&#39;s a step along this line I do not fully understand. Would like to discuss." style="text;html=1;align=center;verticalAlign=middle;whiteSpace=wrap;rounded=0;" vertex="1" parent="1">
          <mxGeometry x="170" y="490" width="440" height="30" as="geometry" />
        </mxCell>
        <mxCell id="oTseqAAYHnmtsjDJyoBC-55" value="" style="edgeStyle=orthogonalEdgeStyle;rounded=0;orthogonalLoop=1;jettySize=auto;html=1;" edge="1" parent="1" source="oTseqAAYHnmtsjDJyoBC-50" target="oTseqAAYHnmtsjDJyoBC-54">
          <mxGeometry relative="1" as="geometry" />
        </mxCell>
        <mxCell id="oTseqAAYHnmtsjDJyoBC-50" value="Prompt user for experiment details" style="rounded=1;whiteSpace=wrap;html=1;" vertex="1" parent="1">
          <mxGeometry x="10" y="710" width="120" height="60" as="geometry" />
        </mxCell>
        <mxCell id="oTseqAAYHnmtsjDJyoBC-51" value="Brief overview" style="text;html=1;align=center;verticalAlign=middle;whiteSpace=wrap;rounded=0;" vertex="1" parent="1">
          <mxGeometry x="25" y="670" width="90" height="30" as="geometry" />
        </mxCell>
        <mxCell id="oTseqAAYHnmtsjDJyoBC-57" value="" style="edgeStyle=orthogonalEdgeStyle;rounded=0;orthogonalLoop=1;jettySize=auto;html=1;" edge="1" parent="1" source="oTseqAAYHnmtsjDJyoBC-54" target="oTseqAAYHnmtsjDJyoBC-56">
          <mxGeometry relative="1" as="geometry" />
        </mxCell>
        <mxCell id="oTseqAAYHnmtsjDJyoBC-54" value="Use CellProfiler to count nuclei in selected image folder" style="whiteSpace=wrap;html=1;rounded=1;" vertex="1" parent="1">
          <mxGeometry x="210" y="710" width="120" height="60" as="geometry" />
        </mxCell>
        <mxCell id="oTseqAAYHnmtsjDJyoBC-59" value="" style="edgeStyle=orthogonalEdgeStyle;rounded=0;orthogonalLoop=1;jettySize=auto;html=1;" edge="1" parent="1" source="oTseqAAYHnmtsjDJyoBC-56" target="oTseqAAYHnmtsjDJyoBC-58">
          <mxGeometry relative="1" as="geometry" />
        </mxCell>
        <mxCell id="oTseqAAYHnmtsjDJyoBC-56" value="Organize and run stats on the data by condition" style="whiteSpace=wrap;html=1;rounded=1;" vertex="1" parent="1">
          <mxGeometry x="410" y="710" width="120" height="60" as="geometry" />
        </mxCell>
        <mxCell id="oTseqAAYHnmtsjDJyoBC-61" value="" style="edgeStyle=orthogonalEdgeStyle;rounded=0;orthogonalLoop=1;jettySize=auto;html=1;" edge="1" parent="1" source="oTseqAAYHnmtsjDJyoBC-58" target="oTseqAAYHnmtsjDJyoBC-60">
          <mxGeometry relative="1" as="geometry">
            <Array as="points">
              <mxPoint x="670" y="790" />
              <mxPoint x="670" y="790" />
            </Array>
          </mxGeometry>
        </mxCell>
        <mxCell id="oTseqAAYHnmtsjDJyoBC-58" value="Fit logistic curves to the data and find IC50s" style="whiteSpace=wrap;html=1;rounded=1;" vertex="1" parent="1">
          <mxGeometry x="610" y="710" width="120" height="60" as="geometry" />
        </mxCell>
        <mxCell id="oTseqAAYHnmtsjDJyoBC-60" value="Create x-y plots where x is doses and y is relative cell survival" style="whiteSpace=wrap;html=1;rounded=1;" vertex="1" parent="1">
          <mxGeometry x="605" y="810" width="130" height="60" as="geometry" />
        </mxCell>
        <mxCell id="oTseqAAYHnmtsjDJyoBC-70" value="&lt;div align=&quot;left&quot;&gt;&lt;b&gt;What I would like to improve:&lt;/b&gt;&lt;/div&gt;&lt;div align=&quot;left&quot;&gt;&lt;b&gt;&lt;br&gt;&lt;/b&gt;&lt;/div&gt;&lt;div align=&quot;left&quot;&gt;&lt;ul&gt;&lt;li&gt;Add .csv output with organized data&lt;/li&gt;&lt;li&gt;Clean up code (rename unwieldy categories, loop repetitive tasks)&lt;/li&gt;&lt;li&gt;Better comments and organization&lt;br&gt;&lt;/li&gt;&lt;li&gt;Create intuitive fail messages&lt;/li&gt;&lt;li&gt;(Maybe) use a .csv input file with experiment details instead of GUI&lt;/li&gt;&lt;/ul&gt;&lt;/div&gt;&lt;div&gt;&lt;br&gt;&lt;/div&gt;" style="rounded=0;whiteSpace=wrap;html=1;align=left;" vertex="1" parent="1">
          <mxGeometry x="25" y="870" width="485" height="150" as="geometry" />
        </mxCell>
      </root>
    </mxGraphModel>
  </diagram>
</mxfile>
